<svg width="77" height="14" viewBox="0 0 77 14" fill="none" xmlns="http://www.w3.org/2000/svg">
<path d="M56.1055 4.04492C56.8935 4.04492 57.6008 4.16685 58.2266 4.41016C58.8524 4.65355 59.3488 5.01309 59.7139 5.48828C60.0787 5.96331 60.2607 6.53111 60.2607 7.19141V13.6064H57.4971V12.2852H57.4268C57.166 12.7719 56.8074 13.1435 56.3496 13.3984C55.8919 13.6476 55.3354 13.7744 54.6807 13.7803C54.0664 13.7745 53.5241 13.6676 53.0547 13.459C52.5855 13.2504 52.2207 12.9375 51.96 12.5205C51.6992 12.1033 51.5684 11.5899 51.5684 10.9814C51.5626 10.0081 51.8814 9.28974 52.5244 8.82617C53.1676 8.35682 54.0137 8.09015 55.0625 8.02637C55.5725 7.9916 56.2106 7.96263 56.9756 7.93945L57.3232 7.92188V7.15723C57.3232 6.83276 57.2103 6.58003 56.9844 6.40039C56.7642 6.22075 56.4566 6.13086 56.0625 6.13086C55.6626 6.13086 55.341 6.21274 55.0977 6.375C54.8543 6.53726 54.7034 6.77501 54.6455 7.08789H51.916C51.9624 6.51997 52.1511 6.00664 52.4814 5.54883C52.8175 5.08536 53.2922 4.71966 53.9062 4.45312C54.5204 4.18081 55.2538 4.04497 56.1055 4.04492ZM37.9941 5.78223H38.0635C38.2721 5.28981 38.5968 4.87809 39.0371 4.54785C39.4775 4.21189 40.046 4.04395 40.7412 4.04395C41.4306 4.04403 42.0592 4.22383 42.627 4.58301C43.2005 4.94221 43.6581 5.48691 44 6.2168C44.3419 6.94116 44.5137 7.83406 44.5137 8.89453C44.5137 9.92605 44.3449 10.8069 44.0088 11.5371C43.6785 12.2671 43.2269 12.8176 42.6533 13.1885C42.0797 13.5593 41.4363 13.7451 40.7236 13.7451C40.0514 13.7451 39.4921 13.5883 39.0459 13.2754C38.6055 12.9567 38.2779 12.5571 38.0635 12.0762H37.9766V13.6064H35.0732V1.01953H37.9941V5.78223ZM50.7793 4.02832C51.0515 4.03992 51.3295 4.07395 51.6133 4.13184V6.6875C51.4743 6.64701 51.289 6.61593 51.0576 6.59277C50.8317 6.56381 50.6228 6.54884 50.4316 6.54883C50.0725 6.54883 49.7477 6.62983 49.458 6.79199C49.174 6.94846 48.9503 7.17216 48.7881 7.46191C48.6318 7.74578 48.5537 8.07363 48.5537 8.44434V13.6074H45.6152V4.16699H48.4668V5.87109H48.5537C48.7218 5.26841 49.0004 4.813 49.3887 4.50586C49.7827 4.19312 50.2463 4.03411 50.7793 4.02832ZM4.15137 11.1895H9.43652V13.6064H1.19629V1.01953H4.15137V11.1895ZM13.46 13.6064H10.5215V4.16602H13.46V13.6064ZM20.6465 4.04492C21.3013 4.04492 21.8756 4.19273 22.3682 4.48828C22.8665 4.77803 23.2491 5.19252 23.5156 5.73145C23.7822 6.26457 23.915 6.88484 23.915 7.5918V13.6064H20.9951V8.14746C20.995 7.61462 20.8581 7.20072 20.5859 6.90527C20.3136 6.60393 19.9341 6.45013 19.4473 6.44434C18.955 6.45015 18.5611 6.60926 18.2656 6.92188C17.9759 7.22901 17.8301 7.65546 17.8301 8.2002V13.6064H14.8926V4.16699H17.6738V5.8877H17.7783C17.9927 5.31405 18.3523 4.86454 18.8564 4.54004C19.3604 4.20994 19.9572 4.04499 20.6465 4.04492ZM28.251 7.59082H28.373L31.1025 4.16602H34.4404L31.042 8.27734L34.5791 13.6064H31.1895L28.8682 9.99023L28.251 10.7285V13.6064H25.3135V1.01953H28.251V7.59082ZM64.5449 13.6064H61.6064V4.16602H64.5449V13.6064ZM71.7314 4.04492C72.3863 4.04492 72.9605 4.19273 73.4531 4.48828C73.9515 4.77803 74.334 5.19254 74.6006 5.73145C74.8671 6.26456 75 6.88485 75 7.5918V13.6064H72.0791V8.14746C72.079 7.61465 71.9431 7.20072 71.6709 6.90527C71.3985 6.60393 71.019 6.45013 70.5322 6.44434C70.0397 6.45013 69.6452 6.60894 69.3496 6.92188C69.0599 7.22901 68.915 7.65546 68.915 8.2002V13.6064H65.9775V4.16699H68.7588V5.8877H68.8633C69.0777 5.31406 69.4373 4.86453 69.9414 4.54004C70.4454 4.20995 71.0422 4.04498 71.7314 4.04492ZM57.3398 9.64355C57.0965 9.64936 56.7896 9.66336 56.4189 9.68652C56.0482 9.7039 55.7584 9.7239 55.5498 9.74707C55.1732 9.78762 54.8775 9.90659 54.6631 10.1035C54.4546 10.3005 54.3497 10.5584 54.3496 10.877C54.3496 11.1841 54.4605 11.4218 54.6807 11.5898C54.9067 11.7521 55.2023 11.834 55.5674 11.834C55.8974 11.8339 56.1985 11.7669 56.4707 11.6338C56.7431 11.4947 56.9548 11.306 57.1055 11.0684C57.2618 10.8251 57.3398 10.5531 57.3398 10.252V9.64355ZM39.7324 6.33887C39.1703 6.33887 38.7299 6.56257 38.4111 7.00879C38.0983 7.45498 37.9414 8.06642 37.9414 8.84277C37.9414 9.64233 38.0983 10.2768 38.4111 10.7461C38.7241 11.2155 39.1645 11.4502 39.7324 11.4502C40.2945 11.4502 40.729 11.2184 41.0361 10.7549C41.3491 10.2913 41.5059 9.66508 41.5059 8.87695C41.5058 8.09474 41.349 7.47736 41.0361 7.02539C40.729 6.56777 40.2944 6.33887 39.7324 6.33887ZM12 0.219727C12.278 0.21978 12.5329 0.283694 12.7646 0.411133C12.9964 0.532827 13.1822 0.703637 13.3213 0.923828C13.4603 1.13819 13.5293 1.37302 13.5293 1.62793C13.5293 1.88285 13.4603 2.12065 13.3213 2.34082C13.1822 2.55521 12.9964 2.72603 12.7646 2.85352C12.5329 2.97516 12.278 3.03608 12 3.03613C11.7276 3.03613 11.475 2.97521 11.2432 2.85352C11.0115 2.72608 10.8265 2.55507 10.6875 2.34082C10.5542 2.12061 10.4873 1.88291 10.4873 1.62793C10.4873 1.37298 10.5542 1.13822 10.6875 0.923828C10.8265 0.703808 11.0116 0.532774 11.2432 0.411133C11.475 0.283641 11.7276 0.219727 12 0.219727ZM63.084 0.219727C63.3621 0.219727 63.6178 0.283641 63.8496 0.411133C64.0812 0.532781 64.2663 0.703812 64.4053 0.923828C64.5443 1.13822 64.6142 1.37298 64.6143 1.62793C64.6143 1.88291 64.5444 2.12061 64.4053 2.34082C64.2663 2.55506 64.0812 2.72607 63.8496 2.85352C63.6178 2.97521 63.3621 3.03613 63.084 3.03613C62.8117 3.03608 62.5598 2.97516 62.3281 2.85352C62.0963 2.72602 61.9106 2.55523 61.7715 2.34082C61.6382 2.12064 61.5723 1.88287 61.5723 1.62793C61.5723 1.373 61.6382 1.13821 61.7715 0.923828C61.9106 0.703615 62.0963 0.532829 62.3281 0.411133C62.5598 0.283701 62.8117 0.219777 63.084 0.219727Z" fill="url(#paint0_linear_133_417)"/>
<defs>
<linearGradient id="paint0_linear_133_417" x1="1.68059" y1="1.12301" x2="75.2939" y2="14.6841" gradientUnits="userSpaceOnUse">
<stop stop-color="#7CE6C7"/>
<stop offset="1" stop-color="#21DBA4"/>
</linearGradient>
</defs>
</svg>
