<svg width="37" height="20" viewBox="0 0 37 20" fill="none" xmlns="http://www.w3.org/2000/svg">
<g filter="url(#filter0_f_133_416)">
<path d="M26.4779 18.4453C31.1844 18.4453 35 14.5523 35 9.74993L34.9973 9.52541C34.8806 4.82678 31.1109 1.05439 26.4779 1.05439L26.2581 1.05716C22.7873 1.14687 19.8324 3.35407 18.5873 6.45988C17.3025 3.28868 14.216 1.0544 10.6126 1.05439L10.3903 1.05716C5.73644 1.1762 2 5.02261 2 9.74993C2.00004 14.5522 5.85603 18.4453 10.6126 18.4453C14.2158 18.4453 17.3023 16.2113 18.5872 13.0403C19.8586 16.2113 22.9126 18.4453 26.4779 18.4453ZM10.6126 13.3178C8.66092 13.3177 7.07873 11.7204 7.07868 9.74993C7.07869 7.77945 8.6609 6.18196 10.6126 6.18192C12.5643 6.18194 14.1466 7.77944 14.1466 9.74993C14.1466 11.7204 12.5643 13.3178 10.6126 13.3178ZM26.4779 13.3178C24.5468 13.3177 22.9813 11.7204 22.9813 9.74993C22.9813 7.77946 24.5467 6.18198 26.4779 6.18192C28.4091 6.18192 29.9748 7.77943 29.9748 9.74993C29.9748 11.7204 28.4091 13.3178 26.4779 13.3178Z" fill="#21DBA4"/>
</g>
<path d="M26.4779 18.4453C31.1844 18.4453 35 14.5523 35 9.74993L34.9973 9.52541C34.8806 4.82678 31.1109 1.05439 26.4779 1.05439L26.2581 1.05716C22.7873 1.14687 19.8324 3.35407 18.5873 6.45988C17.3025 3.28868 14.216 1.0544 10.6126 1.05439L10.3903 1.05716C5.73644 1.1762 2 5.02261 2 9.74993C2.00004 14.5522 5.85603 18.4453 10.6126 18.4453C14.2158 18.4453 17.3023 16.2113 18.5872 13.0403C19.8586 16.2113 22.9126 18.4453 26.4779 18.4453ZM10.6126 13.3178C8.66092 13.3177 7.07873 11.7204 7.07868 9.74993C7.07869 7.77945 8.6609 6.18196 10.6126 6.18192C12.5643 6.18194 14.1466 7.77944 14.1466 9.74993C14.1466 11.7204 12.5643 13.3178 10.6126 13.3178ZM26.4779 13.3178C24.5468 13.3177 22.9813 11.7204 22.9813 9.74993C22.9813 7.77946 24.5467 6.18198 26.4779 6.18192C28.4091 6.18192 29.9748 7.77943 29.9748 9.74993C29.9748 11.7204 28.4091 13.3178 26.4779 13.3178Z" fill="white" fill-opacity="0.2"/>
<defs>
<filter id="filter0_f_133_416" x="1" y="0.0546875" width="35" height="19.3906" filterUnits="userSpaceOnUse" color-interpolation-filters="sRGB">
<feFlood flood-opacity="0" result="BackgroundImageFix"/>
<feBlend mode="normal" in="SourceGraphic" in2="BackgroundImageFix" result="shape"/>
<feGaussianBlur stdDeviation="0.5" result="effect1_foregroundBlur_133_416"/>
</filter>
</defs>
</svg>
