<svg width="39" height="22" viewBox="0 0 39 22" fill="none" xmlns="http://www.w3.org/2000/svg">
<g filter="url(#filter0_d_132_399)">
<g filter="url(#filter1_f_132_399)">
<path d="M28.4449 20.499C33.7219 20.499 38 16.1341 38 10.7497L37.997 10.4979C37.8662 5.22975 33.6395 1.0001 28.4449 1.0001L28.1985 1.00321C24.307 1.10379 20.9939 3.57853 19.5979 7.06081C18.1573 3.50522 14.6967 1.00012 10.6566 1.0001L10.4073 1.00321C5.18935 1.13668 1 5.44932 1 10.7497C1.00005 16.1341 5.32343 20.499 10.6566 20.499C14.6966 20.499 18.1571 17.9942 19.5978 14.4389C21.0233 17.9942 24.4475 20.499 28.4449 20.499ZM10.6566 14.75C8.4683 14.7499 6.69433 12.9589 6.69428 10.7497C6.69429 8.54033 8.46828 6.7492 10.6566 6.74916C12.8448 6.74918 14.6189 8.54031 14.6189 10.7497C14.6189 12.959 12.8448 14.7499 10.6566 14.75ZM28.4449 14.75C26.2797 14.7499 24.5245 12.9589 24.5245 10.7497C24.5245 8.54034 26.2797 6.74923 28.4449 6.74916C30.6102 6.74916 32.3657 8.5403 32.3657 10.7497C32.3656 12.959 30.6102 14.75 28.4449 14.75Z" fill="#21DBA4"/>
</g>
<g filter="url(#filter2_d_132_399)">
<path d="M28.4449 20.499C33.7219 20.499 38 16.1341 38 10.7497L37.997 10.4979C37.8662 5.22975 33.6395 1.0001 28.4449 1.0001L28.1985 1.00321C24.307 1.10379 20.9939 3.57853 19.5979 7.06081C18.1573 3.50522 14.6967 1.00012 10.6566 1.0001L10.4073 1.00321C5.18935 1.13668 1 5.44932 1 10.7497C1.00005 16.1341 5.32343 20.499 10.6566 20.499C14.6966 20.499 18.1571 17.9942 19.5978 14.4389C21.0233 17.9942 24.4475 20.499 28.4449 20.499ZM10.6566 14.75C8.4683 14.7499 6.69433 12.9589 6.69428 10.7497C6.69429 8.54033 8.46828 6.7492 10.6566 6.74916C12.8448 6.74918 14.6189 8.54031 14.6189 10.7497C14.6189 12.959 12.8448 14.7499 10.6566 14.75ZM28.4449 14.75C26.2797 14.7499 24.5245 12.9589 24.5245 10.7497C24.5245 8.54034 26.2797 6.74923 28.4449 6.74916C30.6102 6.74916 32.3657 8.5403 32.3657 10.7497C32.3656 12.959 30.6102 14.75 28.4449 14.75Z" fill="white" fill-opacity="0.2"/>
</g>
</g>
<defs>
<filter id="filter0_d_132_399" x="1" y="1" width="37" height="19.499" filterUnits="userSpaceOnUse" color-interpolation-filters="sRGB">
<feFlood flood-opacity="0" result="BackgroundImageFix"/>
<feColorMatrix in="SourceAlpha" type="matrix" values="0 0 0 0 0 0 0 0 0 0 0 0 0 0 0 0 0 0 127 0" result="hardAlpha"/>
<feOffset/>
<feComposite in2="hardAlpha" operator="out"/>
<feColorMatrix type="matrix" values="0 0 0 0 0 0 0 0 0 0 0 0 0 0 0 0 0 0 0.1 0"/>
<feBlend mode="normal" in2="BackgroundImageFix" result="effect1_dropShadow_132_399"/>
<feBlend mode="normal" in="SourceGraphic" in2="effect1_dropShadow_132_399" result="shape"/>
</filter>
<filter id="filter1_f_132_399" x="0" y="0" width="39" height="21.499" filterUnits="userSpaceOnUse" color-interpolation-filters="sRGB">
<feFlood flood-opacity="0" result="BackgroundImageFix"/>
<feBlend mode="normal" in="SourceGraphic" in2="BackgroundImageFix" result="shape"/>
<feGaussianBlur stdDeviation="0.5" result="effect1_foregroundBlur_132_399"/>
</filter>
<filter id="filter2_d_132_399" x="1" y="1" width="37" height="19.499" filterUnits="userSpaceOnUse" color-interpolation-filters="sRGB">
<feFlood flood-opacity="0" result="BackgroundImageFix"/>
<feColorMatrix in="SourceAlpha" type="matrix" values="0 0 0 0 0 0 0 0 0 0 0 0 0 0 0 0 0 0 127 0" result="hardAlpha"/>
<feOffset/>
<feColorMatrix type="matrix" values="0 0 0 0 0 0 0 0 0 0 0 0 0 0 0 0 0 0 0.1 0"/>
<feBlend mode="normal" in2="BackgroundImageFix" result="effect1_dropShadow_132_399"/>
<feBlend mode="normal" in="BackgroundImageFix" in2="effect1_dropShadow_132_399" result="BackgroundImageFix"/>
<feBlend mode="normal" in="SourceGraphic" in2="BackgroundImageFix" result="shape"/>
</filter>
</defs>
</svg>
