<svg width="126" height="22" viewBox="0 0 126 22" fill="none" xmlns="http://www.w3.org/2000/svg">
<g filter="url(#filter0_d_132_398)">
<g filter="url(#filter1_f_132_398)">
<path d="M28.4449 20.499C33.7219 20.499 38 16.1341 38 10.7497L37.997 10.4979C37.8662 5.22975 33.6395 1.0001 28.4449 1.0001L28.1985 1.00321C24.307 1.10379 20.9939 3.57853 19.5979 7.06081C18.1573 3.50522 14.6967 1.00012 10.6566 1.0001L10.4073 1.00321C5.18935 1.13668 1 5.44932 1 10.7497C1.00005 16.1341 5.32343 20.499 10.6566 20.499C14.6966 20.499 18.1571 17.9942 19.5978 14.4389C21.0233 17.9942 24.4475 20.499 28.4449 20.499ZM10.6566 14.75C8.4683 14.7499 6.69433 12.9589 6.69428 10.7497C6.69429 8.54033 8.46828 6.7492 10.6566 6.74916C12.8448 6.74918 14.6189 8.54031 14.6189 10.7497C14.6189 12.959 12.8448 14.7499 10.6566 14.75ZM28.4449 14.75C26.2797 14.7499 24.5245 12.9589 24.5245 10.7497C24.5245 8.54034 26.2797 6.74923 28.4449 6.74916C30.6102 6.74916 32.3657 8.5403 32.3657 10.7497C32.3656 12.959 30.6102 14.75 28.4449 14.75Z" fill="#21DBA4"/>
</g>
<g filter="url(#filter2_d_132_398)">
<path d="M28.4449 20.499C33.7219 20.499 38 16.1341 38 10.7497L37.997 10.4979C37.8662 5.22975 33.6395 1.0001 28.4449 1.0001L28.1985 1.00321C24.307 1.10379 20.9939 3.57853 19.5979 7.06081C18.1573 3.50522 14.6967 1.00012 10.6566 1.0001L10.4073 1.00321C5.18935 1.13668 1 5.44932 1 10.7497C1.00005 16.1341 5.32343 20.499 10.6566 20.499C14.6966 20.499 18.1571 17.9942 19.5978 14.4389C21.0233 17.9942 24.4475 20.499 28.4449 20.499ZM10.6566 14.75C8.4683 14.7499 6.69433 12.9589 6.69428 10.7497C6.69429 8.54033 8.46828 6.7492 10.6566 6.74916C12.8448 6.74918 14.6189 8.54031 14.6189 10.7497C14.6189 12.959 12.8448 14.7499 10.6566 14.75ZM28.4449 14.75C26.2797 14.7499 24.5245 12.9589 24.5245 10.7497C24.5245 8.54034 26.2797 6.74923 28.4449 6.74916C30.6102 6.74916 32.3657 8.5403 32.3657 10.7497C32.3656 12.959 30.6102 14.75 28.4449 14.75Z" fill="white" fill-opacity="0.2"/>
</g>
</g>
<g filter="url(#filter3_d_132_398)">
<path d="M104.689 7.5166C105.503 7.5166 106.234 7.64227 106.88 7.89355C107.526 8.14484 108.037 8.51631 108.414 9.00684C108.791 9.49741 108.979 10.0836 108.979 10.7656V17.3887H106.126V16.0244H106.054C105.785 16.5269 105.414 16.9106 104.941 17.1738C104.469 17.4311 103.894 17.5624 103.218 17.5684C102.584 17.5624 102.025 17.4516 101.54 17.2363C101.055 17.0209 100.678 16.6974 100.409 16.2666C100.14 15.8359 100.005 15.3068 100.005 14.6787C99.9989 13.6737 100.328 12.9318 100.992 12.4531C101.656 11.9686 102.53 11.6928 103.612 11.627C104.139 11.5911 104.797 11.561 105.587 11.5371L105.946 11.5195V10.7295C105.946 10.3946 105.829 10.1346 105.596 9.94922C105.368 9.76381 105.051 9.6709 104.645 9.6709C104.232 9.67094 103.9 9.75439 103.648 9.92188C103.397 10.0894 103.241 10.3352 103.182 10.6582H100.364C100.412 10.0719 100.606 9.54199 100.947 9.06934C101.294 8.59074 101.785 8.21368 102.419 7.93848C103.053 7.6573 103.81 7.51663 104.689 7.5166ZM85.9902 9.31055H86.0625C86.2779 8.80212 86.6128 8.3771 87.0674 8.03613C87.522 7.68922 88.1084 7.51566 88.8262 7.51562C89.538 7.51562 90.1872 7.70146 90.7734 8.07227C91.3657 8.44321 91.8384 9.00592 92.1914 9.75977C92.5444 10.5076 92.7217 11.4287 92.7217 12.5234C92.7217 13.5884 92.5482 14.4981 92.2012 15.252C91.8601 16.0058 91.3931 16.5741 90.8008 16.957C90.2085 17.3399 89.5444 17.5312 88.8086 17.5312C88.1146 17.5312 87.5369 17.37 87.0762 17.0469C86.6216 16.7179 86.2839 16.305 86.0625 15.8086H85.9727V17.3877H82.9756V4.39258H85.9902V9.31055ZM68.0811 7.5166C68.7571 7.5166 69.3498 7.66948 69.8584 7.97461C70.3728 8.27375 70.7678 8.70147 71.043 9.25781C71.3182 9.80824 71.4561 10.4488 71.4561 11.1787V17.3887H68.4404V11.7529C68.4404 11.2026 68.2996 10.7748 68.0186 10.4697C67.7374 10.1586 67.3453 10.0001 66.8428 9.99414C66.3342 10.0001 65.9272 10.1642 65.6221 10.4873C65.3229 10.8044 65.1738 11.2443 65.1738 11.8066V17.3887H62.1406V7.64258H65.0117V9.41992H65.1201C65.3415 8.82762 65.7119 8.36336 66.2324 8.02832C66.7529 7.68732 67.3692 7.51663 68.0811 7.5166ZM99.1904 7.49902C99.4715 7.511 99.7587 7.54664 100.052 7.60645V10.2451C99.9082 10.2033 99.7167 10.1704 99.4775 10.1465C99.2442 10.1166 99.0285 10.1016 98.8311 10.1016C98.4602 10.1016 98.1252 10.1851 97.8262 10.3525C97.533 10.5141 97.3023 10.7448 97.1348 11.0439C96.9733 11.337 96.8926 11.6749 96.8926 12.0576V17.3887H93.8594V7.64258H96.8027V9.40137H96.8926C97.0661 8.77921 97.3531 8.30926 97.7539 7.99219C98.1607 7.66911 98.64 7.50501 99.1904 7.49902ZM120.822 7.5166C121.498 7.51662 122.09 7.66962 122.599 7.97461C123.113 8.27376 123.509 8.7014 123.784 9.25781C124.059 9.80822 124.196 10.4488 124.196 11.1787V17.3887H121.181V11.7529C121.181 11.2027 121.041 10.7748 120.76 10.4697C120.479 10.1587 120.086 10.0002 119.584 9.99414C119.075 10.0001 118.668 10.1643 118.363 10.4873C118.064 10.8044 117.914 11.2442 117.914 11.8066V17.3887H114.881V7.64258H117.753V9.41992H117.86C118.082 8.82761 118.453 8.36336 118.974 8.02832C119.494 7.68738 120.11 7.5166 120.822 7.5166ZM51.0518 14.8926H56.5078V17.3877H48V4.39258H51.0518V14.8926ZM60.6611 17.3877H57.6279V7.6416H60.6611V17.3877ZM75.9326 11.1777H76.0576L78.876 7.6416H82.3223L78.8125 11.8867L82.4658 17.3877H78.9658L76.5693 13.6543L75.9326 14.417V17.3877H72.8984V4.39258H75.9326V11.1777ZM113.402 17.3877H110.368V7.6416H113.402V17.3877ZM105.964 13.2969C105.713 13.3029 105.396 13.3169 105.013 13.3408C104.63 13.3588 104.331 13.3804 104.115 13.4043C103.726 13.4462 103.422 13.5691 103.2 13.7725C102.985 13.9758 102.877 14.2415 102.877 14.5703C102.877 14.8874 102.99 15.1331 103.218 15.3066C103.451 15.4741 103.756 15.5575 104.133 15.5576C104.474 15.5576 104.785 15.4891 105.066 15.3516C105.347 15.208 105.566 15.0137 105.722 14.7686C105.883 14.5173 105.964 14.2358 105.964 13.9248V13.2969ZM87.7852 9.88477C87.2049 9.88483 86.7499 10.1155 86.4209 10.5762C86.0979 11.0368 85.9365 11.6681 85.9365 12.4697C85.9365 13.2954 86.0978 13.9509 86.4209 14.4355C86.7439 14.92 87.199 15.162 87.7852 15.1621C88.3655 15.1621 88.8147 14.923 89.1318 14.4443C89.4549 13.9657 89.6162 13.3194 89.6162 12.5059C89.6162 11.6982 89.4549 11.0604 89.1318 10.5938C88.8147 10.1212 88.3654 9.88477 87.7852 9.88477ZM59.1533 3.56738C59.4405 3.56738 59.7041 3.63304 59.9434 3.76465C60.1826 3.89023 60.374 4.06674 60.5176 4.29395C60.6612 4.51531 60.7334 4.75824 60.7334 5.02148C60.7334 5.28458 60.6611 5.5296 60.5176 5.75684C60.374 5.9782 60.1827 6.15548 59.9434 6.28711C59.7041 6.41269 59.4404 6.47461 59.1533 6.47461C58.8724 6.47457 58.6122 6.41258 58.373 6.28711C58.1337 6.15548 57.9424 5.9782 57.7988 5.75684C57.6613 5.52957 57.5918 5.28462 57.5918 5.02148C57.5918 4.75824 57.6612 4.51531 57.7988 4.29395C57.9424 4.0668 58.1339 3.89021 58.373 3.76465C58.6122 3.63316 58.8723 3.56742 59.1533 3.56738ZM111.895 3.56738C112.181 3.56743 112.444 3.63321 112.684 3.76465C112.923 3.89028 113.115 4.06663 113.259 4.29395C113.402 4.51531 113.474 4.75824 113.474 5.02148C113.474 5.28448 113.402 5.52967 113.259 5.75684C113.115 5.9782 112.923 6.15548 112.684 6.28711C112.444 6.41253 112.181 6.47457 111.895 6.47461C111.613 6.47461 111.353 6.41274 111.113 6.28711C110.874 6.15548 110.683 5.9782 110.539 5.75684C110.402 5.52962 110.333 5.28455 110.333 5.02148C110.333 4.75824 110.401 4.51531 110.539 4.29395C110.683 4.06673 110.874 3.89024 111.113 3.76465C111.353 3.63302 111.613 3.56738 111.895 3.56738Z" fill="url(#paint0_linear_132_398)"/>
</g>
<defs>
<filter id="filter0_d_132_398" x="1" y="1" width="37" height="19.499" filterUnits="userSpaceOnUse" color-interpolation-filters="sRGB">
<feFlood flood-opacity="0" result="BackgroundImageFix"/>
<feColorMatrix in="SourceAlpha" type="matrix" values="0 0 0 0 0 0 0 0 0 0 0 0 0 0 0 0 0 0 127 0" result="hardAlpha"/>
<feOffset/>
<feComposite in2="hardAlpha" operator="out"/>
<feColorMatrix type="matrix" values="0 0 0 0 0 0 0 0 0 0 0 0 0 0 0 0 0 0 0.1 0"/>
<feBlend mode="normal" in2="BackgroundImageFix" result="effect1_dropShadow_132_398"/>
<feBlend mode="normal" in="SourceGraphic" in2="effect1_dropShadow_132_398" result="shape"/>
</filter>
<filter id="filter1_f_132_398" x="0" y="0" width="39" height="21.499" filterUnits="userSpaceOnUse" color-interpolation-filters="sRGB">
<feFlood flood-opacity="0" result="BackgroundImageFix"/>
<feBlend mode="normal" in="SourceGraphic" in2="BackgroundImageFix" result="shape"/>
<feGaussianBlur stdDeviation="0.5" result="effect1_foregroundBlur_132_398"/>
</filter>
<filter id="filter2_d_132_398" x="1" y="1" width="37" height="19.499" filterUnits="userSpaceOnUse" color-interpolation-filters="sRGB">
<feFlood flood-opacity="0" result="BackgroundImageFix"/>
<feColorMatrix in="SourceAlpha" type="matrix" values="0 0 0 0 0 0 0 0 0 0 0 0 0 0 0 0 0 0 127 0" result="hardAlpha"/>
<feOffset/>
<feColorMatrix type="matrix" values="0 0 0 0 0 0 0 0 0 0 0 0 0 0 0 0 0 0 0.1 0"/>
<feBlend mode="normal" in2="BackgroundImageFix" result="effect1_dropShadow_132_398"/>
<feBlend mode="normal" in="BackgroundImageFix" in2="effect1_dropShadow_132_398" result="BackgroundImageFix"/>
<feBlend mode="normal" in="SourceGraphic" in2="BackgroundImageFix" result="shape"/>
</filter>
<filter id="filter3_d_132_398" x="47" y="2.56738" width="78.1963" height="16.001" filterUnits="userSpaceOnUse" color-interpolation-filters="sRGB">
<feFlood flood-opacity="0" result="BackgroundImageFix"/>
<feColorMatrix in="SourceAlpha" type="matrix" values="0 0 0 0 0 0 0 0 0 0 0 0 0 0 0 0 0 0 127 0" result="hardAlpha"/>
<feOffset/>
<feGaussianBlur stdDeviation="0.5"/>
<feComposite in2="hardAlpha" operator="out"/>
<feColorMatrix type="matrix" values="0 0 0 0 0 0 0 0 0 0 0 0 0 0 0 0 0 0 0.1 0"/>
<feBlend mode="normal" in2="BackgroundImageFix" result="effect1_dropShadow_132_398"/>
<feBlend mode="normal" in="SourceGraphic" in2="effect1_dropShadow_132_398" result="shape"/>
</filter>
<linearGradient id="paint0_linear_132_398" x1="48.5" y1="4.5" x2="124.5" y2="18.5" gradientUnits="userSpaceOnUse">
<stop stop-color="#7CE6C7"/>
<stop offset="1" stop-color="#21DBA4"/>
</linearGradient>
</defs>
</svg>
