<svg width="79" height="17" viewBox="0 0 79 17" fill="none" xmlns="http://www.w3.org/2000/svg">
<g filter="url(#filter0_d_132_400)">
<path d="M57.6895 5.38184C58.5031 5.38184 59.2337 5.50751 59.8799 5.75879C60.5259 6.01007 61.0372 6.38154 61.4141 6.87207C61.7909 7.36265 61.9795 7.94886 61.9795 8.63086V15.2539H59.126V13.8896H59.0537C58.7845 14.3922 58.414 14.7758 57.9414 15.0391C57.4688 15.2963 56.8938 15.4276 56.2178 15.4336C55.5838 15.4276 55.0245 15.3168 54.54 15.1016C54.0554 14.8862 53.6784 14.5626 53.4092 14.1318C53.14 13.7011 53.0049 13.172 53.0049 12.5439C52.9989 11.5389 53.3282 10.797 53.9922 10.3184C54.6562 9.83381 55.5296 9.55805 56.6123 9.49219C57.1388 9.45629 57.7973 9.42627 58.5869 9.40234L58.9463 9.38477V8.59473C58.9462 8.25979 58.829 7.99988 58.5957 7.81445C58.3684 7.62904 58.0513 7.53613 57.6445 7.53613C57.2318 7.53617 56.8997 7.61963 56.6484 7.78711C56.3972 7.95463 56.2415 8.20039 56.1816 8.52344H53.3643C53.4121 7.93711 53.6062 7.40722 53.9473 6.93457C54.2943 6.45598 54.7848 6.07892 55.4189 5.80371C56.0531 5.52254 56.8101 5.38186 57.6895 5.38184ZM38.9902 7.17578H39.0625C39.2779 6.66735 39.6128 6.24233 40.0674 5.90137C40.522 5.55445 41.1084 5.3809 41.8262 5.38086C42.538 5.38086 43.1872 5.5667 43.7734 5.9375C44.3657 6.30844 44.8384 6.87115 45.1914 7.625C45.5444 8.37282 45.7217 9.2939 45.7217 10.3887C45.7217 11.4536 45.5482 12.3633 45.2012 13.1172C44.8601 13.871 44.3931 14.4394 43.8008 14.8223C43.2085 15.2051 42.5444 15.3965 41.8086 15.3965C41.1146 15.3965 40.5369 15.2352 40.0762 14.9121C39.6216 14.5831 39.2839 14.1702 39.0625 13.6738H38.9727V15.2529H35.9756V2.25781H38.9902V7.17578ZM21.0811 5.38184C21.7571 5.38184 22.3498 5.53471 22.8584 5.83984C23.3728 6.13898 23.7678 6.56671 24.043 7.12305C24.3182 7.67348 24.4561 8.31403 24.4561 9.04395V15.2539H21.4404V9.61816C21.4404 9.06786 21.2996 8.64008 21.0186 8.33496C20.7374 8.02385 20.3453 7.86536 19.8428 7.85938C19.3342 7.86536 18.9272 8.02946 18.6221 8.35254C18.3229 8.66963 18.1738 9.10951 18.1738 9.67188V15.2539H15.1406V5.50781H18.0117V7.28516H18.1201C18.3415 6.69285 18.7119 6.2286 19.2324 5.89355C19.7529 5.55256 20.3692 5.38187 21.0811 5.38184ZM52.1904 5.36426C52.4715 5.37624 52.7587 5.41187 53.0518 5.47168V8.11035C52.9082 8.06848 52.7167 8.03565 52.4775 8.01172C52.2442 7.9818 52.0285 7.9668 51.8311 7.9668C51.4602 7.96681 51.1252 8.05035 50.8262 8.21777C50.533 8.37931 50.3023 8.61003 50.1348 8.90918C49.9733 9.20222 49.8926 9.54015 49.8926 9.92285V15.2539H46.8594V5.50781H49.8027V7.2666H49.8926C50.0661 6.64444 50.3531 6.1745 50.7539 5.85742C51.1607 5.53434 51.64 5.37024 52.1904 5.36426ZM73.8223 5.38184C74.4981 5.38185 75.0902 5.53486 75.5986 5.83984C76.1132 6.13899 76.509 6.56663 76.7842 7.12305C77.0594 7.67345 77.1963 8.31407 77.1963 9.04395V15.2539H74.1807V9.61816C74.1807 9.06795 74.0407 8.64007 73.7598 8.33496C73.4786 8.02391 73.0864 7.86542 72.584 7.85938C72.0755 7.86536 71.6684 8.02954 71.3633 8.35254C71.0641 8.66963 70.9141 9.10948 70.9141 9.67188V15.2539H67.8809V5.50781H70.7529V7.28516H70.8604C71.0817 6.69285 71.4531 6.2286 71.9736 5.89355C72.4941 5.55261 73.1104 5.38184 73.8223 5.38184ZM4.05176 12.7578H9.50781V15.2529H1V2.25781H4.05176V12.7578ZM13.6611 15.2529H10.6279V5.50684H13.6611V15.2529ZM28.9326 9.04297H29.0576L31.876 5.50684H35.3223L31.8125 9.75195L35.4658 15.2529H31.9658L29.5693 11.5195L28.9326 12.2822V15.2529H25.8984V2.25781H28.9326V9.04297ZM66.4023 15.2529H63.3682V5.50684H66.4023V15.2529ZM58.9639 11.1621C58.7126 11.1681 58.3955 11.1821 58.0127 11.2061C57.6298 11.224 57.3306 11.2456 57.1152 11.2695C56.7264 11.3114 56.4215 11.4343 56.2002 11.6377C55.985 11.841 55.8771 12.1067 55.877 12.4355C55.877 12.7526 55.9905 12.9984 56.2178 13.1719C56.451 13.3393 56.7561 13.4228 57.1328 13.4229C57.4738 13.4229 57.7853 13.3543 58.0664 13.2168C58.3475 13.0733 58.5661 12.879 58.7217 12.6338C58.8832 12.3826 58.9638 12.1011 58.9639 11.79V11.1621ZM40.7852 7.75C40.2049 7.75006 39.7499 7.98078 39.4209 8.44141C39.0979 8.90207 38.9365 9.53337 38.9365 10.335C38.9365 11.1606 39.0978 11.8162 39.4209 12.3008C39.7439 12.7853 40.199 13.0273 40.7852 13.0273C41.3655 13.0273 41.8147 12.7882 42.1318 12.3096C42.4549 11.831 42.6162 11.1847 42.6162 10.3711C42.6162 9.5634 42.4549 8.92565 42.1318 8.45898C41.8147 7.98642 41.3654 7.75 40.7852 7.75ZM12.1533 1.43262C12.4405 1.43262 12.7041 1.49827 12.9434 1.62988C13.1826 1.75547 13.374 1.93198 13.5176 2.15918C13.6612 2.38055 13.7334 2.62347 13.7334 2.88672C13.7334 3.14981 13.6611 3.39484 13.5176 3.62207C13.374 3.84344 13.1827 4.02072 12.9434 4.15234C12.7041 4.27793 12.4404 4.33984 12.1533 4.33984C11.8724 4.33981 11.6122 4.27781 11.373 4.15234C11.1337 4.02072 10.9424 3.84344 10.7988 3.62207C10.6613 3.3948 10.5918 3.14986 10.5918 2.88672C10.5918 2.62347 10.6612 2.38055 10.7988 2.15918C10.9424 1.93204 11.1339 1.75544 11.373 1.62988C11.6122 1.49839 11.8723 1.43266 12.1533 1.43262ZM64.8945 1.43262C65.1814 1.43266 65.4445 1.49844 65.6836 1.62988C65.9229 1.75551 66.1152 1.93186 66.2588 2.15918C66.4024 2.38055 66.4736 2.62347 66.4736 2.88672C66.4736 3.14972 66.4022 3.39491 66.2588 3.62207C66.1152 3.84344 65.9229 4.02072 65.6836 4.15234C65.4445 4.27776 65.1814 4.3398 64.8945 4.33984C64.6134 4.33984 64.3526 4.27797 64.1133 4.15234C63.874 4.02072 63.6827 3.84344 63.5391 3.62207C63.4016 3.39486 63.3331 3.14978 63.333 2.88672C63.333 2.62347 63.4015 2.38055 63.5391 2.15918C63.6826 1.93197 63.8741 1.75548 64.1133 1.62988C64.3526 1.49826 64.6133 1.43262 64.8945 1.43262Z" fill="url(#paint0_linear_132_400)"/>
</g>
<defs>
<filter id="filter0_d_132_400" x="0" y="0.432617" width="78.1963" height="16.001" filterUnits="userSpaceOnUse" color-interpolation-filters="sRGB">
<feFlood flood-opacity="0" result="BackgroundImageFix"/>
<feColorMatrix in="SourceAlpha" type="matrix" values="0 0 0 0 0 0 0 0 0 0 0 0 0 0 0 0 0 0 127 0" result="hardAlpha"/>
<feOffset/>
<feGaussianBlur stdDeviation="0.5"/>
<feComposite in2="hardAlpha" operator="out"/>
<feColorMatrix type="matrix" values="0 0 0 0 0 0 0 0 0 0 0 0 0 0 0 0 0 0 0.1 0"/>
<feBlend mode="normal" in2="BackgroundImageFix" result="effect1_dropShadow_132_400"/>
<feBlend mode="normal" in="SourceGraphic" in2="effect1_dropShadow_132_400" result="shape"/>
</filter>
<linearGradient id="paint0_linear_132_400" x1="1.5" y1="2.36523" x2="77.5" y2="16.3652" gradientUnits="userSpaceOnUse">
<stop stop-color="#7CE6C7"/>
<stop offset="1" stop-color="#21DBA4"/>
</linearGradient>
</defs>
</svg>
