<svg width="512" height="512" viewBox="0 0 512 512" fill="none" xmlns="http://www.w3.org/2000/svg">
<rect width="512" height="512" rx="60" fill="url(#paint0_linear_132_377)"/>
<g filter="url(#filter0_f_132_377)">
<path d="M356.345 147C415.248 147 462.999 195.722 463 255.824L462.966 258.634C461.506 317.438 414.327 364.65 356.345 364.65L353.594 364.615C310.157 363.493 273.175 335.869 257.593 297C241.513 336.688 202.885 364.65 157.788 364.65L155.006 364.615C96.7622 363.126 50.0001 314.987 50 255.824C50.0005 195.722 98.2588 147.001 157.788 147C202.883 147 241.51 174.959 257.592 214.645C273.503 174.959 311.724 147.001 356.345 147ZM157.788 211.172C133.362 211.172 113.561 231.164 113.561 255.824C113.561 280.485 133.362 300.478 157.788 300.478C182.214 300.478 202.016 280.485 202.016 255.824C202.016 231.163 182.214 211.172 157.788 211.172ZM356.345 211.172C332.176 211.173 312.585 231.164 312.584 255.824C312.584 280.485 332.176 300.477 356.345 300.478C380.514 300.478 400.109 280.485 400.109 255.824C400.108 231.163 380.513 211.172 356.345 211.172Z" fill="url(#paint1_linear_132_377)"/>
</g>
<g filter="url(#filter1_df_132_377)">
<path d="M356.345 147C415.248 147 462.999 195.722 463 255.824L462.966 258.634C461.506 317.438 414.327 364.65 356.345 364.65L353.594 364.615C310.157 363.493 273.175 335.869 257.593 297C241.513 336.688 202.885 364.65 157.788 364.65L155.006 364.615C96.7622 363.126 50.0001 314.987 50 255.824C50.0005 195.722 98.2588 147.001 157.788 147C202.883 147 241.51 174.959 257.592 214.645C273.503 174.959 311.724 147.001 356.345 147ZM157.788 211.172C133.362 211.172 113.561 231.164 113.561 255.824C113.561 280.485 133.362 300.478 157.788 300.478C182.214 300.478 202.016 280.485 202.016 255.824C202.016 231.163 182.214 211.172 157.788 211.172ZM356.345 211.172C332.176 211.173 312.585 231.164 312.584 255.824C312.584 280.485 332.176 300.477 356.345 300.478C380.514 300.478 400.109 280.485 400.109 255.824C400.108 231.163 380.513 211.172 356.345 211.172Z" fill="white" fill-opacity="0.2" shape-rendering="crispEdges"/>
</g>
<defs>
<filter id="filter0_f_132_377" x="40" y="137" width="433" height="237.65" filterUnits="userSpaceOnUse" color-interpolation-filters="sRGB">
<feFlood flood-opacity="0" result="BackgroundImageFix"/>
<feBlend mode="normal" in="SourceGraphic" in2="BackgroundImageFix" result="shape"/>
<feGaussianBlur stdDeviation="5" result="effect1_foregroundBlur_132_377"/>
</filter>
<filter id="filter1_df_132_377" x="48" y="146" width="421" height="226.65" filterUnits="userSpaceOnUse" color-interpolation-filters="sRGB">
<feFlood flood-opacity="0" result="BackgroundImageFix"/>
<feColorMatrix in="SourceAlpha" type="matrix" values="0 0 0 0 0 0 0 0 0 0 0 0 0 0 0 0 0 0 127 0" result="hardAlpha"/>
<feOffset dx="2" dy="4"/>
<feGaussianBlur stdDeviation="2"/>
<feComposite in2="hardAlpha" operator="out"/>
<feColorMatrix type="matrix" values="0 0 0 0 0 0 0 0 0 0 0 0 0 0 0 0 0 0 0.2 0"/>
<feBlend mode="normal" in2="BackgroundImageFix" result="effect1_dropShadow_132_377"/>
<feBlend mode="normal" in="BackgroundImageFix" in2="effect1_dropShadow_132_377" result="BackgroundImageFix"/>
<feBlend mode="normal" in="SourceGraphic" in2="BackgroundImageFix" result="shape"/>
<feGaussianBlur stdDeviation="0.5" result="effect2_foregroundBlur_132_377"/>
</filter>
<linearGradient id="paint0_linear_132_377" x1="256" y1="0" x2="256" y2="512" gradientUnits="userSpaceOnUse">
<stop stop-color="white"/>
<stop offset="1" stop-color="#EBEBEB"/>
</linearGradient>
<linearGradient id="paint1_linear_132_377" x1="256.5" y1="147" x2="256.5" y2="364.65" gradientUnits="userSpaceOnUse">
<stop stop-color="#21DBA4"/>
<stop offset="1" stop-color="#1EC090"/>
</linearGradient>
</defs>
</svg>
